# xmcd
#
# Track frame offsets: 
#        150
#        8888
#        18277
#        27442
#        36567
#        44577
#        52921
#        64209
#        73768
#        81662
#        90725
#        100832
#        111469
#        121088
#        131812
#        141328
#        150285
#        160641
#        170953
#        182645
#        189811
#        197461
#        207388
#        216486
#        228422
#        237236
#        247728
#        258391
#        268713
#        276831
#        285652
#        303625
#
# Disc length: 4211 seconds
#
# Revision: 0
# Processed by: cddbd v1.5.2PL0 Copyright (c) Steve Scherf et al.
# Submitted via: ExactAudioCopy v0.99pb3
#
DISCID=d9107120
DTITLE=Eddie Cochran - C'mon everybody ( CD2 )
DYEAR=2010
DGENRE=Rock and Roll
TTITLE0=Pink peg slacks
TTITLE1=Yesterday's heartbreak
TTITLE2=Tired and sleepy
TTITLE3=Slow down
TTITLE4=Long tall Sally
TTITLE5=Blues suede shoes
TTITLE6=I almost lost my mind
TTITLE7=That's my desire
TTITLE8=Twenty-flight rock ( UK single version )
TTITLE9=Mighty mean
TTITLE10=Cotton picker
TTITLE11=Completely sweet ( LP version )
TTITLE12=Undying love
TTITLE13=I'm alone because i love you
TTITLE14=Lovin' time
TTITLE15=Proud of you
TTITLE16=Stockin's and shoes
TTITLE17=Tell me why
TTITLE18=Have i told you lately that i love you
TTITLE19=Teenage cutie
TTITLE20=Little lou
TTITLE21=Ah, pretty girl
TTITLE22=Summertime blues ( UK single version )
TTITLE23=I've waited so long
TTITLE24=Let's get together
TTITLE25=Nervous breakdown
TTITLE26=Rock'n'roll blues
TTITLE27=Three steps to heaven ( demo )
TTITLE28=Guybo
TTITLE29=My love to remember
TTITLE30=Eddie's blues
TTITLE31=Milk cow blues
EXTD=
EXTT0=
EXTT1=
EXTT2=
EXTT3=
EXTT4=
EXTT5=
EXTT6=
EXTT7=
EXTT8=
EXTT9=
EXTT10=
EXTT11=
EXTT12=
EXTT13=
EXTT14=
EXTT15=
EXTT16=
EXTT17=
EXTT18=
EXTT19=
EXTT20=
EXTT21=
EXTT22=
EXTT23=
EXTT24=
EXTT25=
EXTT26=
EXTT27=
EXTT28=
EXTT29=
EXTT30=
EXTT31=
PLAYORDER=
